HIERARCHY
ROOT Pelvis
{
	OFFSET 0.000000 0.929658 0.000000
	CHANNELS 6 Xposition Yposition Zposition Zrotation Yrotation Xrotation 
	JOINT L_Hip
	{
		OFFSET 0.040712 -0.048808 -0.053045
		CHANNELS 3 Zrotation Yrotation Xrotation
		JOINT L_Knee
		{
			OFFSET 0.066543 -0.394981 -0.053371
			CHANNELS 3 Zrotation Yrotation Xrotation
			JOINT L_Ankle
			{
				OFFSET -0.262169 -0.300035 -0.134013
				CHANNELS 3 Zrotation Yrotation Xrotation
				End Site #name: L_Foot
				{
					OFFSET 0.059014 -0.122942 -0.020767
				}
			}
		}
	}
	JOINT R_Hip
	{
		OFFSET -0.046473 -0.059832 0.033071
		CHANNELS 3 Zrotation Yrotation Xrotation
		JOINT R_Knee
		{
			OFFSET 0.142733 -0.367036 0.088373
			CHANNELS 3 Zrotation Yrotation Xrotation
			JOINT R_Ankle
			{
				OFFSET 0.053864 -0.404497 -0.067471
				CHANNELS 3 Zrotation Yrotation Xrotation
				End Site #name: R_Foot
				{
					OFFSET 0.043303 -0.071212 0.113153
				}
			}
		}
	}
	JOINT Spine1
	{
		OFFSET -0.043780 0.162360 -0.017651
		CHANNELS 3 Zrotation Yrotation Xrotation
		JOINT Spine2
		{
			OFFSET 0.010252 0.123835 0.040969
			CHANNELS 3 Zrotation Yrotation Xrotation
			JOINT Spine3
			{
				OFFSET 0.009140 0.035634 0.009239
				CHANNELS 3 Zrotation Yrotation Xrotation
				JOINT Neck
				{
					OFFSET -0.009269 0.225718 0.016960
					CHANNELS 3 Zrotation Yrotation Xrotation
					End Site #name: Head
					{
						OFFSET 0.006883 0.118955 0.045189
					}
				}
				JOINT L_Collar
				{
					OFFSET 0.050490 0.111107 -0.040703
					CHANNELS 3 Zrotation Yrotation Xrotation
					JOINT L_Shoulder
					{
						OFFSET 0.097916 0.024589 -0.088634
						CHANNELS 3 Zrotation Yrotation Xrotation
						JOINT L_Elbow
						{
							OFFSET 0.059397 -0.210495 -0.115171
							CHANNELS 3 Zrotation Yrotation Xrotation
							End Site #name: L_Wrist
							{
								OFFSET 0.112406 -0.209570 0.115998
							}
						}
					}
				}
				JOINT R_Collar
				{
					OFFSET -0.075180 0.091328 0.054817
					CHANNELS 3 Zrotation Yrotation Xrotation
					JOINT R_Shoulder
					{
						OFFSET -0.122253 -0.000645 0.037335
						CHANNELS 3 Zrotation Yrotation Xrotation
						JOINT R_Elbow
						{
							OFFSET -0.145281 -0.158929 -0.110906
							CHANNELS 3 Zrotation Yrotation Xrotation
							End Site #name: R_Wrist
							{
								OFFSET 0.052970 -0.241965 0.044146
							}
						}
					}
				}
			}
		}
	}
}
MOTION
Frames: 17
Frame Time: 0.041667
1.809503 0.950237 1.691818 -1.289898 20.032739 1.989900 7.844905 -0.464838 5.947774 29.646280 9.364825 -18.674449 -4.960440 3.527747 4.948520 -4.394795 1.120487 5.086081 -47.002632 8.197744 -0.991896 14.013434 21.723960 6.940807 -12.868284 3.710890 -12.927998 12.153240 -2.986266 -0.696147 0.901055 10.785602 8.913134 -12.111877 4.739365 2.390030 14.246365 36.700590 6.127626 -5.299424 13.328380 25.834505 -3.632183 -20.081122 -26.443921 6.800692 35.260697 3.690350 7.126291 12.059507 -18.012288 31.816588 6.558829 -13.224983 
1.850569 0.913408 1.675380 0.135722 19.487177 3.356002 8.073653 -0.557305 5.434078 19.123541 10.782918 -17.701077 8.648157 -0.471208 2.415455 -0.657056 0.273369 1.093673 -52.729679 14.510575 6.380875 11.898159 17.795758 0.404229 -15.126411 4.267015 -11.479360 13.718779 -3.578888 -0.270931 -1.723612 9.535253 6.192136 -8.217173 3.222491 4.451337 9.107462 31.044402 2.204995 -1.933295 8.380052 21.269393 -0.311412 -16.117079 -25.527875 7.880180 27.611458 3.905178 3.755247 10.209571 -14.117404 22.637911 3.892305 -9.567729 
1.890978 0.906343 1.668217 0.360566 17.831866 4.014988 5.478912 -0.054041 5.688960 16.380257 10.873108 -17.200154 11.618875 -1.188757 1.918741 2.147078 0.091002 -1.149733 -46.846938 16.788470 12.895231 9.319768 12.933151 -3.489272 -14.993359 4.388651 -8.930675 15.130088 -4.186682 0.251346 -4.456364 8.392631 3.059149 -6.635557 2.569588 6.375929 7.601462 26.652137 1.525196 -0.199593 5.665668 17.729874 2.640983 -13.741258 -26.156893 6.873681 21.842764 3.126910 0.076951 8.960722 -10.466131 19.125729 3.013902 -8.668257 
1.932952 0.923168 1.670957 -0.150629 15.270544 4.195567 1.204024 0.831825 6.260149 19.477004 9.442855 -16.570472 6.711387 0.002990 2.700208 2.446637 0.118275 -1.279418 -32.661840 13.235258 16.000331 6.494384 7.825382 -5.017172 -12.976276 3.993317 -6.559513 16.545465 -4.947789 1.080918 -7.031733 7.475401 0.351264 -6.358702 2.451506 7.164748 7.763966 24.468474 2.047893 -0.606668 5.274813 15.696140 4.778063 -13.693302 -29.141083 4.506906 18.027473 1.903709 -2.651695 8.536110 -8.189711 19.716611 3.115516 -9.889898 
1.976442 0.951160 1.682005 -0.376484 12.594386 4.633905 -1.882097 1.370023 5.956453 21.559297 6.396941 -14.436941 -3.988396 1.782035 2.083829 0.464496 0.277056 0.431113 -15.324605 6.059460 12.194661 4.369302 4.724140 -4.180437 -10.773578 3.442952 -4.842533 17.422932 -5.253860 1.182671 -9.034474 6.804903 -1.274831 -6.118414 2.344253 7.539470 8.387794 23.277422 2.829366 -1.607288 5.636380 14.586648 5.116869 -15.208353 -31.861077 2.046613 15.322468 0.786720 -3.647730 7.647432 -6.378151 20.414550 3.228736 -12.044985 
2.019506 0.970492 1.698099 -0.075914 9.835343 5.863526 -2.662153 1.173422 4.188304 18.983287 2.720176 -10.530098 -18.342352 3.363072 -0.033595 -3.496891 0.581553 3.387186 3.604438 -0.261375 3.344476 2.023184 1.259682 -3.388115 -9.039281 2.956326 -4.250116 17.297126 -4.942114 0.555911 -9.750729 6.180947 -2.255300 -6.787620 2.652801 7.885578 9.386111 21.923572 3.981611 -3.113873 6.543626 14.010376 3.923634 -17.035969 -32.674725 0.017221 13.790622 -0.063394 -2.496432 5.866453 -4.954012 21.202639 3.419926 -13.323682 
2.061694 0.972661 1.714745 0.708321 6.918838 7.917701 -0.569533 0.189926 0.649569 10.358485 -0.357207 -4.460675 -24.838025 3.642480 -1.422766 -8.361758 1.124217 6.756856 17.694521 -2.795487 -4.559275 -2.832266 -6.915510 -3.180461 -8.115496 2.690827 -4.348555 17.416439 -4.012296 -1.657929 -9.997597 5.790787 -1.927210 -7.078251 2.797439 8.704914 9.726224 20.480986 4.544828 -4.724095 8.144025 15.026259 2.151149 -18.178930 -31.681772 -0.271852 12.521021 -0.173331 -0.771849 3.747331 -3.653810 21.061791 3.321469 -15.375204 
2.102787 0.956511 1.729132 1.772600 4.136611 9.347504 3.776806 -0.856036 -2.604077 -1.927393 -1.397648 2.642352 -19.716630 2.291302 -1.922094 -11.845471 1.194569 8.165341 20.423917 -3.091467 -5.374234 -2.468044 -11.415526 -9.340973 -7.762308 2.580741 -3.162204 17.549703 -3.631442 -2.617403 -10.903623 5.482868 -2.267211 -6.921687 2.714323 7.881657 8.604982 20.291131 3.553092 -4.297577 8.243561 16.093452 1.098845 -17.273695 -29.001153 0.806080 11.788690 0.258836 1.490030 3.421046 -4.875448 19.961867 2.862277 -18.245098 
2.138574 0.929551 1.743555 1.955599 1.639539 9.296936 9.715003 -1.761166 -5.776087 -12.931173 -2.243735 10.715572 -12.842154 0.426293 -2.991832 -12.571825 1.113304 8.250035 16.023721 -2.616685 -2.117720 2.862339 -8.322937 -18.463261 -7.753360 2.560038 -0.764268 18.108358 -3.818892 -2.520607 -11.853127 5.196653 -2.823858 -4.668401 1.700421 6.090547 6.486294 20.609636 1.549027 -3.473326 7.899186 16.844508 0.925413 -14.187520 -24.462767 3.555283 11.989310 1.352438 4.909677 5.096402 -8.975857 17.121951 1.694228 -21.032489 
2.169610 0.909573 1.761060 1.490178 -0.893286 8.533830 16.404571 -2.398803 -10.459373 -19.773516 -2.977653 17.239531 -8.060677 -1.088441 -4.398692 -12.455169 1.365261 8.704395 10.925753 -1.788819 0.464553 5.472023 -5.292412 -22.053895 -7.952692 2.611779 1.392307 18.371860 -4.375619 -1.420632 -11.907258 4.750999 -3.613137 -2.368422 0.731006 4.828314 4.840219 19.833965 0.170723 -3.537046 8.146944 17.347477 1.168356 -10.083192 -18.636249 6.097494 13.015968 2.406298 8.686571 8.325476 -14.648473 13.424982 0.184153 -22.225235 
2.198001 0.910595 1.785366 1.182576 -3.375689 8.373806 20.457816 -2.483540 -15.642928 -17.794279 -5.624707 19.311618 -6.834240 -1.955231 -5.686311 -14.230660 2.112512 10.679028 8.877259 -1.508575 -0.760151 5.712994 -2.882717 -19.950775 -8.080997 2.651562 2.304750 18.747558 -4.833609 -0.630490 -11.957856 4.216375 -4.578703 -1.033024 0.152459 4.959606 4.600653 18.296317 0.236969 -4.088272 9.174007 18.800956 1.015236 -7.888639 -14.942301 7.260621 13.774424 2.916257 12.210611 9.981722 -18.158209 12.695723 -0.223583 -23.323017 
2.225267 0.931292 1.817129 1.205231 -5.250376 8.466758 19.895938 -2.453504 -19.119198 -5.877186 -10.478851 15.661025 -6.562378 -3.068904 -7.673799 -16.843895 2.440697 11.963581 8.184034 -1.432224 -1.318615 4.850067 -0.497395 -14.282675 -7.394342 2.413549 2.042046 17.757619 -4.608711 -0.507339 -11.450131 3.565862 -5.088098 -0.494237 -0.139850 6.060403 5.222247 16.375196 1.175329 -4.333285 10.158981 20.673370 0.808912 -7.845353 -14.613944 7.097136 12.336832 2.779655 14.659289 9.465180 -18.771942 15.047926 0.652967 -23.996479 
2.251601 0.958220 1.854378 0.934080 -6.586253 8.097455 16.291734 -2.571118 -18.544135 13.141901 -12.870861 5.507268 -9.075359 -5.382512 -12.136159 -18.046781 2.042980 11.551853 7.527518 -1.197038 0.759318 1.680733 -0.330344 -5.020362 -5.479620 1.757832 1.650695 16.185939 -4.397589 0.036032 -11.057665 2.841729 -5.492176 -0.370474 -0.244818 6.946802 5.848023 14.385569 2.133821 -4.775936 10.899494 21.518685 0.704247 -8.716965 -15.886840 5.985531 9.798073 2.231961 15.903432 8.624159 -18.521778 17.498081 1.664524 -23.657538 
2.277216 0.979584 1.894211 0.671713 -7.683524 7.181839 12.143463 -2.475756 -14.678394 31.080367 -8.644433 -6.467837 -15.248988 -8.711048 -17.756584 -16.987630 0.883925 9.214551 2.717703 0.400829 7.763504 -3.650002 -1.844819 5.993368 -3.617381 1.100760 1.945912 15.356766 -3.931202 -0.521489 -10.855705 1.964197 -5.037978 0.340521 -0.638208 8.068585 5.864899 11.549351 2.713167 -4.906187 10.989672 21.469464 0.317110 -9.889161 -17.244927 4.660770 6.103188 1.613795 15.589359 7.589959 -17.379111 18.762195 2.299840 -21.151567 
2.302689 0.973240 1.933918 0.414949 -8.826323 5.989769 10.014628 -2.115108 -10.054556 37.452374 -3.433115 -12.133607 -19.699055 -10.334799 -19.941536 -13.716280 -0.834873 4.934368 -5.878336 5.039569 20.760345 -6.551913 -5.359969 7.081495 -1.904522 0.465214 2.533826 15.358977 -3.672688 -1.148872 -11.586836 0.977409 -4.555709 1.623247 -1.298901 8.906068 5.105101 8.232470 2.713232 -3.159413 9.731528 22.034926 0.773762 -11.362673 -20.092714 3.521886 1.970482 1.119978 13.219786 7.061110 -15.694757 19.269484 2.647121 -17.729969 
2.328004 0.945103 1.972454 0.898070 -9.966350 4.287982 9.279161 -1.889881 -7.736660 32.593610 -5.734048 -8.976916 -11.751098 -10.943962 -21.665311 -10.500699 -2.656343 -0.054426 -13.773040 11.962251 33.985017 -6.684435 -8.823616 2.668712 -1.659528 0.330522 3.238047 16.306569 -3.526749 -2.104612 -13.018251 0.054590 -3.674279 3.412521 -2.132169 8.766693 4.078542 4.017584 2.716200 -0.748836 7.299518 21.039501 2.434984 -11.859267 -23.060173 3.100036 -3.256220 0.883513 9.489225 6.908993 -13.579682 17.799929 2.343728 -14.422907 
2.349111 0.910660 2.010091 1.851167 -10.948585 2.881618 8.620277 -1.670975 -5.759324 25.795008 -7.409838 -5.108099 0.863401 -11.025241 -23.669188 -8.439830 -5.029985 -6.023125 -16.024228 16.701280 43.998073 -5.378743 -10.618188 -2.231698 -2.244427 0.510888 3.739529 16.384324 -3.212962 -2.898142 -14.509746 -0.968259 -2.706223 5.860849 -3.103155 7.249648 2.348754 -1.382617 2.459113 2.436609 3.434184 17.141003 4.223375 -10.325768 -23.150656 3.524775 -8.729006 0.873995 5.437697 6.575425 -10.920763 13.908290 1.420181 -11.493386 
